<svg width="2866" height="612" viewBox="0 0 2866 612" fill="none" xmlns="http://www.w3.org/2000/svg">
<path d="M406.529 603.613C376.507 607.221 347.519 605.466 318.345 601.071C279.977 595.291 243.546 584.09 208.803 567.095C149.197 537.938 101.048 495.571 63.6998 440.821C34.5241 398.052 15.2989 351.101 5.68431 300.318C2.54631 283.743 -0.515323 267.055 0.116744 249.955C0.32454 244.333 2.20171 242.44 7.72535 242.51C25.492 242.737 43.2647 242.714 61.0322 242.519C66.3563 242.461 68.6648 244.256 69.2123 249.799C70.6888 264.75 72.0259 279.732 75.2478 294.469C87.0428 348.419 111.088 396.022 148.387 436.887C189.08 481.47 239.067 510.814 297.061 526.25C331.078 535.305 366.336 538.79 401.098 534.35C516.964 519.55 601.208 459.726 650.446 352.972C664.363 322.799 672.796 290.861 674.239 257.382C674.297 256.041 674.651 254.71 674.67 253.372C674.785 245.119 678.299 241.914 687.093 242.363C702.668 243.159 718.313 242.561 733.929 242.59C744.403 242.609 744.445 242.642 744.418 253.452C744.364 275.322 739.842 296.493 735.162 317.75C728.166 349.527 716.77 379.595 701.128 407.924C652.267 496.412 580.108 557.012 483.538 588.034C458.67 596.023 433.295 601.353 406.529 603.613Z" fill="white"/>
<path d="M252.618 118.104C281.198 112.229 308.61 114.06 335.65 123.276C347.557 127.334 359.629 131.143 371.898 133.82C379.101 135.392 385.865 130.67 392.664 128.438C414.965 121.119 437.82 116.215 461.17 115.598C484.455 114.982 508.641 122.563 526.003 137.505C545.389 154.189 558.145 175.689 565.566 200.693C573.89 228.74 572.17 256.974 561.759 284.341C543.205 333.12 508.407 369.659 470.315 403.424C443.286 427.383 413.815 448.131 383.154 467.24C375.387 472.08 369.244 472.105 362.017 466.279C350.929 457.34 339.323 449.018 327.672 440.811C321.926 436.764 322.164 434.293 327.902 430.309C367.948 402.499 406.718 373.044 441.402 338.617C463.786 316.398 485.407 293.468 497.556 263.566C509.711 233.65 495.162 198.03 464.933 186.992C442.365 178.751 420.259 184.305 399.985 195.623C382.148 205.582 365.727 205.8 347.441 195.98C323.366 183.051 297.473 177.415 270.853 188.591C254.713 195.366 247.794 209.458 245.076 225.947C240.055 256.404 253.032 280.894 271.323 303.372C279.647 313.602 289.37 322.567 299.392 331.187C303.778 334.96 307.256 335.105 312.137 331.558C326.93 320.808 342.199 310.715 357.13 300.151C361.304 297.198 363.936 296.563 367.714 301.271C375.617 311.121 384.268 320.385 392.833 329.685C396.495 333.662 397.046 336.32 392.055 339.924C361.317 362.113 330.688 384.457 300.24 407.042C294.194 411.527 290.58 410.651 285.442 405.365C264.248 383.566 242.514 362.292 221.006 340.797C205.094 324.894 195.282 305.158 186.566 284.868C177.525 263.82 173.303 241.64 176.671 218.911C182.652 178.55 197.237 143.101 236.917 123.935C241.722 121.614 246.96 120.191 252.618 118.104Z" fill="white"/>
<path d="M425.644 54.8251C427.026 87.4723 406.133 111.113 374.653 113.362C346.649 115.362 321.565 93.9423 318.989 64.183C316.892 39.9725 331.259 12.9524 364.857 7.12128C391.553 2.48799 419.518 22.2925 424.499 48.5826C424.848 50.4271 425.182 52.2746 425.644 54.8251Z" fill="white"/>
<path d="M1033.31 126.623C1129.64 126.623 1203 202.488 1203 301.311C1203 400.135 1129.64 476 1033.31 476H893.556V126.623H1033.31ZM1033.31 399.137C1088.21 399.137 1126.14 361.205 1126.14 301.311C1126.14 241.418 1088.21 203.486 1033.31 203.486H973.414V399.137H1033.31ZM1282.84 204.484C1258.39 204.484 1237.92 184.021 1237.92 159.564C1237.92 135.108 1258.39 114.644 1282.84 114.644C1307.3 114.644 1327.76 135.108 1327.76 159.564C1327.76 184.021 1307.3 204.484 1282.84 204.484ZM1245.41 476V226.445H1320.28V476H1245.41ZM1534.28 226.445H1617.13L1524.79 476H1439.95L1347.61 226.445H1430.46L1482.37 384.663L1534.28 226.445ZM1996.47 126.623V476H1916.61V272.862L1826.28 421.098H1817.29L1726.95 272.862V476H1647.1V126.623H1726.95L1821.78 281.846L1916.61 126.623H1996.47ZM2120.91 381.169C2130.39 407.123 2153.35 416.107 2180.8 416.107C2201.26 416.107 2218.73 408.121 2228.71 397.141L2288.61 431.579C2264.15 465.519 2227.22 482.988 2179.8 482.988C2094.45 482.988 2041.55 425.59 2041.55 351.222C2041.55 276.855 2095.45 219.457 2174.31 219.457C2247.18 219.457 2301.09 275.857 2301.09 351.222C2301.09 361.704 2300.09 371.686 2298.09 381.169H2120.91ZM2119.41 325.269H2226.72C2218.73 296.32 2196.27 285.839 2173.81 285.839C2145.36 285.839 2126.4 299.814 2119.41 325.269ZM2522.29 126.623H2597.16V476H2522.29V452.542C2505.82 471.508 2481.36 482.988 2447.92 482.988C2382.54 482.988 2328.63 425.59 2328.63 351.222C2328.63 276.855 2382.54 219.457 2447.92 219.457C2481.36 219.457 2505.82 230.937 2522.29 249.903V126.623ZM2462.89 412.114C2497.33 412.114 2522.29 388.656 2522.29 351.222C2522.29 313.789 2497.33 290.331 2462.89 290.331C2428.46 290.331 2403.5 313.789 2403.5 351.222C2403.5 388.656 2428.46 412.114 2462.89 412.114ZM2720.52 299.315C2720.52 327.764 2843.3 308.798 2843.3 401.133C2843.3 458.531 2793.39 482.988 2739.48 482.988C2689.57 482.988 2651.64 464.021 2632.17 423.593L2697.06 386.659C2703.55 405.625 2717.52 416.107 2739.48 416.107C2757.45 416.107 2766.44 410.617 2766.44 400.634C2766.44 373.183 2643.65 387.658 2643.65 301.311C2643.65 246.908 2689.57 219.457 2741.48 219.457C2781.91 219.457 2817.84 237.425 2838.81 272.862L2774.92 307.301C2767.93 294.324 2757.95 285.34 2741.48 285.34C2728.5 285.34 2720.52 290.331 2720.52 299.315Z" fill="white"/>
</svg>
