<svg width="1422" height="1144" viewBox="0 0 1422 1144" fill="none" xmlns="http://www.w3.org/2000/svg">
<path d="M776.207 1140.29C718.88 1147.18 663.527 1143.83 607.82 1135.44C534.555 1124.4 464.99 1103.02 398.648 1070.56C284.829 1014.89 192.889 933.988 121.572 829.443C65.8606 747.774 29.15 658.121 10.7908 561.15C4.79881 529.501 -1.04742 497.634 0.159522 464.981C0.55631 454.246 4.14078 450.632 14.6882 450.766C48.6139 451.199 82.551 451.154 116.478 450.783C126.645 450.671 131.053 454.099 132.098 464.684C134.918 493.233 137.471 521.841 143.623 549.982C166.146 653 212.06 743.898 283.284 821.93C360.987 907.061 456.437 963.094 567.178 992.571C632.133 1009.86 699.458 1016.52 765.837 1008.04C987.084 979.776 1147.95 865.541 1241.97 661.693C1268.54 604.079 1284.65 543.092 1287.4 479.164C1287.51 476.604 1288.19 474.062 1288.22 471.507C1288.44 455.748 1295.16 449.628 1311.95 450.486C1341.69 452.006 1371.56 450.863 1401.38 450.918C1421.38 450.954 1421.46 451.018 1421.41 471.66C1421.31 513.42 1412.67 553.848 1403.74 594.437C1390.38 655.115 1368.62 712.532 1338.75 766.625C1245.45 935.594 1107.66 1051.31 923.258 1110.55C875.771 1125.8 827.318 1135.98 776.207 1140.29Z" fill="url(#paint0_linear_3373_849)"/>
<path d="M482.315 213.211C536.888 201.992 589.231 205.489 640.864 223.087C663.601 230.836 686.652 238.109 710.079 243.221C723.835 246.223 736.75 237.206 749.734 232.945C792.316 218.967 835.959 209.604 880.546 208.425C925.009 207.249 971.191 221.725 1004.35 250.258C1041.36 282.117 1065.72 323.17 1079.89 370.915C1095.79 424.472 1092.5 478.384 1072.62 530.642C1037.19 623.786 970.744 693.557 898.008 758.033C846.397 803.781 790.121 843.4 731.573 879.889C716.743 889.131 705.012 889.179 691.213 878.055C670.039 860.985 647.878 845.094 625.629 829.422C614.658 821.695 615.112 816.978 626.069 809.369C702.537 756.266 776.569 700.022 842.798 634.282C885.541 591.855 926.826 548.07 950.025 490.973C973.236 433.847 945.453 365.831 887.731 344.753C844.638 329.018 802.425 339.622 763.713 361.235C729.653 380.251 698.297 380.667 663.379 361.916C617.408 337.228 567.965 326.466 517.133 347.806C486.313 360.744 473.103 387.651 467.912 419.137C458.325 477.296 483.105 524.061 518.031 566.982C533.926 586.516 552.493 603.636 571.628 620.095C580.005 627.299 586.646 627.577 595.966 620.804C624.214 600.276 653.37 581.004 681.881 560.831C689.851 555.192 694.877 553.98 702.09 562.969C717.182 581.778 733.7 599.468 750.055 617.227C757.049 624.822 758.101 629.897 748.57 636.777C689.876 679.149 631.389 721.814 573.248 764.942C561.704 773.505 554.803 771.832 544.991 761.739C504.522 720.112 463.019 679.491 421.951 638.446C391.566 608.079 372.831 570.393 356.188 531.648C338.923 491.457 330.86 449.104 337.292 405.703C348.713 328.634 376.563 260.943 452.332 224.346C461.507 219.914 471.51 217.196 482.315 213.211Z" fill="url(#paint1_linear_3373_849)"/>
<path d="M812.709 92.3797C815.348 154.72 775.451 199.862 715.34 204.156C661.867 207.975 613.969 167.074 609.049 110.249C605.046 64.0186 632.48 12.4234 696.635 1.28891C747.612 -7.55842 801.01 30.2584 810.522 80.4598C811.189 83.9818 811.827 87.5095 812.709 92.3797Z" fill="url(#paint2_linear_3373_849)"/>
<defs>
<linearGradient id="paint0_linear_3373_849" x1="710.707" y1="450.407" x2="710.707" y2="1144" gradientUnits="userSpaceOnUse">
<stop stop-color="#0A64FF"/>
<stop offset="1" stop-color="#0648B8"/>
</linearGradient>
<linearGradient id="paint1_linear_3373_849" x1="712.526" y1="206.762" x2="712.526" y2="886.624" gradientUnits="userSpaceOnUse">
<stop stop-color="#0A64FF"/>
<stop offset="1" stop-color="#0648B8"/>
</linearGradient>
<linearGradient id="paint2_linear_3373_849" x1="710.75" y1="0" x2="710.75" y2="204.403" gradientUnits="userSpaceOnUse">
<stop stop-color="#0A64FF"/>
<stop offset="1" stop-color="#0648B8"/>
</linearGradient>
</defs>
</svg>
